<svg id="visual" viewBox="0 0 900 600" width="900" height="600" xmlns="http://www.w3.org/2000/svg" xmlns:xlink="http://www.w3.org/1999/xlink" version="1.1"><g stroke-width="1" stroke-linejoin="bevel"><path d="M463 242L398 162L396 165Z" fill="#121213" stroke="#121213"></path><path d="M463 242L464 135L398 162Z" fill="#181819" stroke="#181819"></path><path d="M396 165L346 263L463 242Z" fill="#0c0c0e" stroke="#0c0c0e"></path><path d="M561 162L485 79L464 135Z" fill="#181819" stroke="#181819"></path><path d="M464 135L485 79L398 162Z" fill="#161617" stroke="#161617"></path><path d="M463 242L561 162L464 135Z" fill="#141415" stroke="#141415"></path><path d="M346 263L359 288L463 242Z" fill="#141415" stroke="#141415"></path><path d="M383 368L522 328L463 242Z" fill="#181819" stroke="#181819"></path><path d="M463 242L590 270L561 162Z" fill="#1a1a1b" stroke="#1a1a1b"></path><path d="M522 328L590 270L463 242Z" fill="#141415" stroke="#141415"></path><path d="M590 270L625 209L561 162Z" fill="#202020" stroke="#202020"></path><path d="M620 0L461 0L485 79Z" fill="#202020" stroke="#202020"></path><path d="M273 457L383 368L359 288Z" fill="#1a1a1b" stroke="#1a1a1b"></path><path d="M359 288L383 368L463 242Z" fill="#09090b" stroke="#09090b"></path><path d="M620 0L485 79L561 162Z" fill="#161617" stroke="#161617"></path><path d="M485 79L364 0L398 162Z" fill="#141415" stroke="#141415"></path><path d="M398 162L237 119L396 165Z" fill="#121213" stroke="#121213"></path><path d="M396 165L237 119L346 263Z" fill="#141415" stroke="#141415"></path><path d="M383 368L502 379L522 328Z" fill="#1e1e1e" stroke="#1e1e1e"></path><path d="M522 328L602 396L590 270Z" fill="#1c1c1c" stroke="#1c1c1c"></path><path d="M625 209L637 141L561 162Z" fill="#09090b" stroke="#09090b"></path><path d="M461 0L364 0L485 79Z" fill="#161617" stroke="#161617"></path><path d="M317 0L237 119L398 162Z" fill="#1a1a1b" stroke="#1a1a1b"></path><path d="M346 263L192 426L359 288Z" fill="#121213" stroke="#121213"></path><path d="M364 0L317 0L398 162Z" fill="#0c0c0e" stroke="#0c0c0e"></path><path d="M590 270L671 237L625 209Z" fill="#0c0c0e" stroke="#0c0c0e"></path><path d="M625 209L703 160L637 141Z" fill="#1e1e1e" stroke="#1e1e1e"></path><path d="M602 396L671 237L590 270Z" fill="#09090b" stroke="#09090b"></path><path d="M605 483L602 396L502 379Z" fill="#0c0c0e" stroke="#0c0c0e"></path><path d="M502 379L602 396L522 328Z" fill="#161617" stroke="#161617"></path><path d="M237 119L185 231L346 263Z" fill="#1e1e1e" stroke="#1e1e1e"></path><path d="M709 0L620 0L637 141Z" fill="#141415" stroke="#141415"></path><path d="M637 141L620 0L561 162Z" fill="#1e1e1e" stroke="#1e1e1e"></path><path d="M671 237L703 160L625 209Z" fill="#121213" stroke="#121213"></path><path d="M317 0L241 0L237 119Z" fill="#141415" stroke="#141415"></path><path d="M237 119L145 184L185 231Z" fill="#0f0f11" stroke="#0f0f11"></path><path d="M241 0L202 50L237 119Z" fill="#09090b" stroke="#09090b"></path><path d="M273 457L358 462L383 368Z" fill="#181819" stroke="#181819"></path><path d="M383 368L469 479L502 379Z" fill="#121213" stroke="#121213"></path><path d="M358 462L469 479L383 368Z" fill="#1c1c1c" stroke="#1c1c1c"></path><path d="M145 184L160 257L185 231Z" fill="#121213" stroke="#121213"></path><path d="M185 231L160 257L346 263Z" fill="#1a1a1b" stroke="#1a1a1b"></path><path d="M202 50L145 184L237 119Z" fill="#181819" stroke="#181819"></path><path d="M192 426L273 457L359 288Z" fill="#181819" stroke="#181819"></path><path d="M433 600L443 600L469 479Z" fill="#1c1c1c" stroke="#1c1c1c"></path><path d="M145 184L135 261L160 257Z" fill="#0f0f11" stroke="#0f0f11"></path><path d="M160 257L192 426L346 263Z" fill="#1e1e1e" stroke="#1e1e1e"></path><path d="M703 160L709 0L637 141Z" fill="#09090b" stroke="#09090b"></path><path d="M469 479L605 483L502 379Z" fill="#202020" stroke="#202020"></path><path d="M838 411L835 260L671 237Z" fill="#1a1a1b" stroke="#1a1a1b"></path><path d="M671 237L835 260L703 160Z" fill="#121213" stroke="#121213"></path><path d="M192 426L280 487L273 457Z" fill="#0f0f11" stroke="#0f0f11"></path><path d="M273 457L280 487L358 462Z" fill="#202020" stroke="#202020"></path><path d="M469 479L595 600L605 483Z" fill="#202020" stroke="#202020"></path><path d="M135 261L192 426L160 257Z" fill="#161617" stroke="#161617"></path><path d="M595 600L659 485L605 483Z" fill="#1c1c1c" stroke="#1c1c1c"></path><path d="M605 483L659 485L602 396Z" fill="#0c0c0e" stroke="#0c0c0e"></path><path d="M703 160L783 0L709 0Z" fill="#202020" stroke="#202020"></path><path d="M861 81L783 0L703 160Z" fill="#0f0f11" stroke="#0f0f11"></path><path d="M0 336L114 418L135 261Z" fill="#141415" stroke="#141415"></path><path d="M135 261L114 418L192 426Z" fill="#09090b" stroke="#09090b"></path><path d="M192 426L177 600L280 487Z" fill="#0f0f11" stroke="#0f0f11"></path><path d="M745 460L671 237L602 396Z" fill="#141415" stroke="#141415"></path><path d="M114 418L134 449L192 426Z" fill="#1c1c1c" stroke="#1c1c1c"></path><path d="M202 50L43 147L145 184Z" fill="#09090b" stroke="#09090b"></path><path d="M145 184L43 147L135 261Z" fill="#1e1e1e" stroke="#1e1e1e"></path><path d="M41 0L43 147L202 50Z" fill="#1e1e1e" stroke="#1e1e1e"></path><path d="M659 485L745 460L602 396Z" fill="#1a1a1b" stroke="#1a1a1b"></path><path d="M433 600L358 462L341 600Z" fill="#0c0c0e" stroke="#0c0c0e"></path><path d="M433 600L469 479L358 462Z" fill="#1a1a1b" stroke="#1a1a1b"></path><path d="M659 485L701 600L745 460Z" fill="#161617" stroke="#161617"></path><path d="M341 600L358 462L280 487Z" fill="#1a1a1b" stroke="#1a1a1b"></path><path d="M900 214L852 227L835 260Z" fill="#1c1c1c" stroke="#1c1c1c"></path><path d="M835 260L852 227L703 160Z" fill="#141415" stroke="#141415"></path><path d="M177 600L341 600L280 487Z" fill="#0f0f11" stroke="#0f0f11"></path><path d="M852 227L861 81L703 160Z" fill="#161617" stroke="#161617"></path><path d="M443 600L595 600L469 479Z" fill="#09090b" stroke="#09090b"></path><path d="M43 147L0 244L135 261Z" fill="#0c0c0e" stroke="#0c0c0e"></path><path d="M114 418L35 482L134 449Z" fill="#0f0f11" stroke="#0f0f11"></path><path d="M241 0L41 0L202 50Z" fill="#1a1a1b" stroke="#1a1a1b"></path><path d="M43 147L0 132L0 244Z" fill="#09090b" stroke="#09090b"></path><path d="M41 0L0 132L43 147Z" fill="#1c1c1c" stroke="#1c1c1c"></path><path d="M828 512L838 411L745 460Z" fill="#121213" stroke="#121213"></path><path d="M745 460L838 411L671 237Z" fill="#1a1a1b" stroke="#1a1a1b"></path><path d="M0 244L0 301L135 261Z" fill="#1a1a1b" stroke="#1a1a1b"></path><path d="M900 363L900 214L835 260Z" fill="#1a1a1b" stroke="#1a1a1b"></path><path d="M852 227L900 214L861 81Z" fill="#1c1c1c" stroke="#1c1c1c"></path><path d="M0 301L0 336L135 261Z" fill="#0c0c0e" stroke="#0c0c0e"></path><path d="M900 214L900 76L861 81Z" fill="#181819" stroke="#181819"></path><path d="M861 81L900 0L783 0Z" fill="#0c0c0e" stroke="#0c0c0e"></path><path d="M41 0L0 0L0 132Z" fill="#09090b" stroke="#09090b"></path><path d="M595 600L701 600L659 485Z" fill="#121213" stroke="#121213"></path><path d="M82 600L177 600L134 449Z" fill="#1e1e1e" stroke="#1e1e1e"></path><path d="M134 449L177 600L192 426Z" fill="#161617" stroke="#161617"></path><path d="M900 390L900 363L838 411Z" fill="#161617" stroke="#161617"></path><path d="M838 411L900 363L835 260Z" fill="#181819" stroke="#181819"></path><path d="M900 76L900 0L861 81Z" fill="#1e1e1e" stroke="#1e1e1e"></path><path d="M0 462L35 482L114 418Z" fill="#0f0f11" stroke="#0f0f11"></path><path d="M900 512L900 390L838 411Z" fill="#181819" stroke="#181819"></path><path d="M768 600L828 512L745 460Z" fill="#09090b" stroke="#09090b"></path><path d="M0 336L0 462L114 418Z" fill="#121213" stroke="#121213"></path><path d="M35 482L82 600L134 449Z" fill="#181819" stroke="#181819"></path><path d="M701 600L768 600L745 460Z" fill="#181819" stroke="#181819"></path><path d="M0 600L82 600L35 482Z" fill="#1e1e1e" stroke="#1e1e1e"></path><path d="M900 600L900 512L828 512Z" fill="#1a1a1b" stroke="#1a1a1b"></path><path d="M828 512L900 512L838 411Z" fill="#09090b" stroke="#09090b"></path><path d="M0 462L0 600L35 482Z" fill="#121213" stroke="#121213"></path><path d="M768 600L900 600L828 512Z" fill="#161617" stroke="#161617"></path></g></svg>