<svg width="77" height="78" viewBox="0 0 77 78" fill="none" xmlns="http://www.w3.org/2000/svg">
    <path fillRule="evenodd" clipRule="evenodd" d="M14.5676 15.4664C14.5126 14.0342 15.6102 12.8731 17.0345 12.8731H58.1027C59.52 12.8731 60.6246 14.0312 60.5696 15.4664L58.2711 75.4068C58.2162 76.839 57.0266 78 55.594 78H19.5431C18.1195 78 16.9211 76.842 16.866 75.4068L14.5676 15.4664Z" fill="#0A3586"/>
    <path d="M37.5685 71.4873C45.3651 71.4873 51.6855 65.0725 51.6855 57.1594C51.6855 49.2463 45.3651 42.8315 37.5685 42.8315C29.772 42.8315 23.4516 49.2463 23.4516 57.1594C23.4516 65.0725 29.772 71.4873 37.5685 71.4873Z" fill="#ED9111"/>
    <path d="M37.5686 62.3695C40.4037 62.3695 42.702 60.0369 42.702 57.1594C42.702 54.2819 40.4037 51.9492 37.5686 51.9492C34.7334 51.9492 32.4351 54.2819 32.4351 57.1594C32.4351 60.0369 34.7334 62.3695 37.5686 62.3695Z" fill="#0A3586"/>
    <path d="M37.5685 36.3188C41.8212 36.3188 45.2687 32.8198 45.2687 28.5036C45.2687 24.1873 41.8212 20.6884 37.5685 20.6884C33.3159 20.6884 29.8684 24.1873 29.8684 28.5036C29.8684 32.8198 33.3159 36.3188 37.5685 36.3188Z" fill="#ED9111"/>
    <path d="M37.5685 31.1087C38.9861 31.1087 40.1353 29.9423 40.1353 28.5036C40.1353 27.0648 38.9861 25.8985 37.5685 25.8985C36.151 25.8985 35.0018 27.0648 35.0018 28.5036C35.0018 29.9423 36.151 31.1087 37.5685 31.1087Z" fill="#0A3586"/>
    <path d="M4.84292 14.1757C7.32365 14.1757 9.33467 13.0093 9.33467 11.5706C9.33467 10.1319 7.32365 8.96553 4.84292 8.96553C2.36219 8.96553 0.351166 10.1319 0.351166 11.5706C0.351166 13.0093 2.36219 14.1757 4.84292 14.1757Z" fill="#E43535"/>
    <path d="M8.11421 10.8907L8.05133 2.45284L11.8321 4.22819" stroke="#E43535" strokeWidth="1.90718" stroke-linecap="round"/>
    <path d="M69.0108 27.2011C71.4915 27.2011 73.5026 26.0347 73.5026 24.596C73.5026 23.1572 71.4915 21.9909 69.0108 21.9909C66.5301 21.9909 64.519 23.1572 64.519 24.596C64.519 26.0347 66.5301 27.2011 69.0108 27.2011Z" fill="#E43535"/>
    <path d="M72.2821 23.916L72.2192 15.4782L76 17.2536" stroke="#E43535" stroke-width="1.90718" stroke-linecap="round"/>
    <path d="M56.1772 53.2518C58.658 53.2518 60.669 52.0855 60.669 50.6467C60.669 49.208 58.658 48.0416 56.1772 48.0416C53.6965 48.0416 51.6855 49.208 51.6855 50.6467C51.6855 52.0855 53.6965 53.2518 56.1772 53.2518Z" fill="#E43535"/>
    <path d="M59.4485 49.9668L59.3857 41.529L63.1664 43.3043" stroke="#E43535" stroke-width="1.90718" stroke-linecap="round"/>
    <path d="M17.6765 27.2011C20.1572 27.2011 22.1683 26.0347 22.1683 24.596C22.1683 23.1572 20.1572 21.9909 17.6765 21.9909C15.1958 21.9909 13.1848 23.1572 13.1848 24.596C13.1848 26.0347 15.1958 27.2011 17.6765 27.2011Z" fill="#E43535"/>
    <path d="M20.9478 23.916L20.8849 15.4782L24.6657 17.2536" stroke="#E43535" stroke-width="1.90718" stroke-linecap="round"/>
    </svg>